<svg width="41" height="38" viewBox="0 0 41 38" fill="none" xmlns="http://www.w3.org/2000/svg">
<path d="M20.5047 36.2253C31.0005 36.2253 39.5093 28.4517 39.5093 18.8627C39.5093 9.27352 31.0005 1.5 20.5047 1.5C10.0087 1.5 1.5 9.27352 1.5 18.8627C1.5 28.4517 10.0087 36.2253 20.5047 36.2253Z" stroke="white" stroke-width="3" stroke-linecap="round" stroke-linejoin="round"/>
<path d="M2.45026 19.7308L12.9028 23.2033L11.0023 29.2803L12.9028 34.4891" stroke="white" stroke-width="3" stroke-linecap="round" stroke-linejoin="round"/>
<path d="M30.007 33.6209L29.0568 29.2803L24.3056 27.544V21.4671L30.007 19.7308L38.5591 20.5989" stroke="white" stroke-width="3" stroke-linecap="round" stroke-linejoin="round"/>
<path d="M33.8079 7.57693L32.8577 10.1813L26.2061 11.0495V16.2583L30.9572 14.522H34.7581L38.5591 16.2583" stroke="white" stroke-width="3" stroke-linecap="round" stroke-linejoin="round"/>
<path d="M2.45026 17.1264L7.88016 13.4224L13.3101 12.4964L17.654 6.9403L15.482 3.23627" stroke="white" stroke-width="3" stroke-linecap="round" stroke-linejoin="round"/>
</svg>
